<mxfile host="Electron" agent="Mozilla/5.0 (X11; Linux x86_64) AppleWebKit/537.36 (KHTML, like Gecko) draw.io/28.1.2 Chrome/138.0.7204.243 Electron/37.4.0 Safari/537.36" version="28.1.2">
  <diagram name="Page-1" id="FwoGwcnvk-ZfK8yX1NMM">
    <mxGraphModel dx="1106" dy="1203" grid="1" gridSize="10" guides="1" tooltips="1" connect="1" arrows="1" fold="1" page="1" pageScale="1" pageWidth="850" pageHeight="1100" math="0" shadow="0">
      <root>
        <mxCell id="0" />
        <mxCell id="1" parent="0" />
        <mxCell id="6eW_wML3xE2GXAJtJS3j-1" value="ITUKT" style="rounded=0;whiteSpace=wrap;html=1;" parent="1" vertex="1">
          <mxGeometry x="470" y="40" width="120" height="60" as="geometry" />
        </mxCell>
        <mxCell id="6eW_wML3xE2GXAJtJS3j-2" value="" style="endArrow=none;html=1;rounded=0;entryX=0.5;entryY=1;entryDx=0;entryDy=0;" parent="1" source="6eW_wML3xE2GXAJtJS3j-44" target="6eW_wML3xE2GXAJtJS3j-1" edge="1">
          <mxGeometry width="50" height="50" relative="1" as="geometry">
            <mxPoint x="530" y="520" as="sourcePoint" />
            <mxPoint x="530" y="90" as="targetPoint" />
          </mxGeometry>
        </mxCell>
        <mxCell id="6eW_wML3xE2GXAJtJS3j-3" value="" style="endArrow=none;html=1;rounded=0;entryX=0.5;entryY=1;entryDx=0;entryDy=0;" parent="1" source="6eW_wML3xE2GXAJtJS3j-27" edge="1">
          <mxGeometry width="50" height="50" relative="1" as="geometry">
            <mxPoint x="750" y="530" as="sourcePoint" />
            <mxPoint x="750" y="100" as="targetPoint" />
          </mxGeometry>
        </mxCell>
        <mxCell id="6eW_wML3xE2GXAJtJS3j-4" value="ITUKT-DB" style="strokeWidth=2;html=1;shape=mxgraph.flowchart.database;whiteSpace=wrap;" parent="1" vertex="1">
          <mxGeometry x="720" y="40" width="60" height="60" as="geometry" />
        </mxCell>
        <mxCell id="6eW_wML3xE2GXAJtJS3j-5" value="" style="endArrow=classic;html=1;rounded=0;entryX=0;entryY=0.25;entryDx=0;entryDy=0;exitX=0.91;exitY=0.289;exitDx=0;exitDy=0;exitPerimeter=0;" parent="1" source="6eW_wML3xE2GXAJtJS3j-44" target="6eW_wML3xE2GXAJtJS3j-27" edge="1">
          <mxGeometry width="50" height="50" relative="1" as="geometry">
            <mxPoint x="530" y="205" as="sourcePoint" />
            <mxPoint x="740" y="230" as="targetPoint" />
          </mxGeometry>
        </mxCell>
        <mxCell id="6eW_wML3xE2GXAJtJS3j-6" value="Write: Klausler" style="edgeLabel;html=1;align=center;verticalAlign=middle;resizable=0;points=[];" parent="6eW_wML3xE2GXAJtJS3j-5" vertex="1" connectable="0">
          <mxGeometry x="-0.1778" y="-1" relative="1" as="geometry">
            <mxPoint x="8" as="offset" />
          </mxGeometry>
        </mxCell>
        <mxCell id="6eW_wML3xE2GXAJtJS3j-7" value="" style="endArrow=none;html=1;rounded=0;entryX=0.5;entryY=1;entryDx=0;entryDy=0;" parent="1" edge="1">
          <mxGeometry width="50" height="50" relative="1" as="geometry">
            <mxPoint x="79" y="530" as="sourcePoint" />
            <mxPoint x="79.5" y="100" as="targetPoint" />
          </mxGeometry>
        </mxCell>
        <mxCell id="6eW_wML3xE2GXAJtJS3j-8" value="" style="endArrow=classic;html=1;rounded=0;exitX=0.91;exitY=0.19;exitDx=0;exitDy=0;exitPerimeter=0;entryX=0.148;entryY=0.06;entryDx=0;entryDy=0;entryPerimeter=0;" parent="1" source="6eW_wML3xE2GXAJtJS3j-40" target="6eW_wML3xE2GXAJtJS3j-46" edge="1">
          <mxGeometry width="50" height="50" relative="1" as="geometry">
            <mxPoint x="140" y="160" as="sourcePoint" />
            <mxPoint x="260" y="170" as="targetPoint" />
          </mxGeometry>
        </mxCell>
        <mxCell id="6eW_wML3xE2GXAJtJS3j-9" value="Oprettelse af klausulser" style="edgeLabel;html=1;align=center;verticalAlign=middle;resizable=0;points=[];" parent="6eW_wML3xE2GXAJtJS3j-8" vertex="1" connectable="0">
          <mxGeometry x="-0.0462" y="-2" relative="1" as="geometry">
            <mxPoint y="-2" as="offset" />
          </mxGeometry>
        </mxCell>
        <mxCell id="6eW_wML3xE2GXAJtJS3j-10" value="" style="endArrow=classic;html=1;rounded=0;dashed=1;entryX=0.91;entryY=0.933;entryDx=0;entryDy=0;entryPerimeter=0;exitX=-0.09;exitY=0.938;exitDx=0;exitDy=0;exitPerimeter=0;" parent="1" source="6eW_wML3xE2GXAJtJS3j-39" target="6eW_wML3xE2GXAJtJS3j-37" edge="1">
          <mxGeometry width="50" height="50" relative="1" as="geometry">
            <mxPoint x="300" y="499" as="sourcePoint" />
            <mxPoint x="80" y="499" as="targetPoint" />
          </mxGeometry>
        </mxCell>
        <mxCell id="6eW_wML3xE2GXAJtJS3j-11" value="Klausuler" style="edgeLabel;html=1;align=center;verticalAlign=middle;resizable=0;points=[];" parent="6eW_wML3xE2GXAJtJS3j-10" vertex="1" connectable="0">
          <mxGeometry x="0.0636" y="-3" relative="1" as="geometry">
            <mxPoint as="offset" />
          </mxGeometry>
        </mxCell>
        <mxCell id="6eW_wML3xE2GXAJtJS3j-12" value="ITUKT-UI" style="rounded=0;whiteSpace=wrap;html=1;" parent="1" vertex="1">
          <mxGeometry x="240" y="40" width="120" height="60" as="geometry" />
        </mxCell>
        <mxCell id="6eW_wML3xE2GXAJtJS3j-13" value="" style="endArrow=none;html=1;rounded=0;entryX=0.5;entryY=1;entryDx=0;entryDy=0;" parent="1" source="6eW_wML3xE2GXAJtJS3j-46" edge="1">
          <mxGeometry width="50" height="50" relative="1" as="geometry">
            <mxPoint x="300" y="530" as="sourcePoint" />
            <mxPoint x="300" y="100" as="targetPoint" />
          </mxGeometry>
        </mxCell>
        <mxCell id="6eW_wML3xE2GXAJtJS3j-14" value="" style="endArrow=classic;html=1;rounded=0;exitX=0.862;exitY=0.309;exitDx=0;exitDy=0;exitPerimeter=0;entryX=0.005;entryY=0.152;entryDx=0;entryDy=0;entryPerimeter=0;" parent="1" source="6eW_wML3xE2GXAJtJS3j-46" target="6eW_wML3xE2GXAJtJS3j-44" edge="1">
          <mxGeometry width="50" height="50" relative="1" as="geometry">
            <mxPoint x="320" y="190" as="sourcePoint" />
            <mxPoint x="530" y="170" as="targetPoint" />
          </mxGeometry>
        </mxCell>
        <mxCell id="6eW_wML3xE2GXAJtJS3j-15" value="Post:&amp;nbsp;/2025/08/01/clauses" style="edgeLabel;html=1;align=center;verticalAlign=middle;resizable=0;points=[];" parent="6eW_wML3xE2GXAJtJS3j-14" vertex="1" connectable="0">
          <mxGeometry x="-0.1652" relative="1" as="geometry">
            <mxPoint x="5" as="offset" />
          </mxGeometry>
        </mxCell>
        <mxCell id="6eW_wML3xE2GXAJtJS3j-16" value="" style="endArrow=classic;html=1;rounded=0;dashed=1;entryX=1.005;entryY=0.774;entryDx=0;entryDy=0;entryPerimeter=0;exitX=-0.043;exitY=0.856;exitDx=0;exitDy=0;exitPerimeter=0;" parent="1" source="6eW_wML3xE2GXAJtJS3j-44" target="6eW_wML3xE2GXAJtJS3j-46" edge="1">
          <mxGeometry width="50" height="50" relative="1" as="geometry">
            <mxPoint x="490" y="290" as="sourcePoint" />
            <mxPoint x="330" y="280" as="targetPoint" />
          </mxGeometry>
        </mxCell>
        <mxCell id="6eW_wML3xE2GXAJtJS3j-17" value="200:" style="edgeLabel;html=1;align=center;verticalAlign=middle;resizable=0;points=[];" parent="6eW_wML3xE2GXAJtJS3j-16" vertex="1" connectable="0">
          <mxGeometry x="0.1739" y="-1" relative="1" as="geometry">
            <mxPoint x="11" as="offset" />
          </mxGeometry>
        </mxCell>
        <mxCell id="6eW_wML3xE2GXAJtJS3j-18" value="" style="endArrow=classic;html=1;rounded=0;exitX=0.957;exitY=0.063;exitDx=0;exitDy=0;exitPerimeter=0;entryX=-0.043;entryY=0.055;entryDx=0;entryDy=0;entryPerimeter=0;" parent="1" source="6eW_wML3xE2GXAJtJS3j-37" target="6eW_wML3xE2GXAJtJS3j-39" edge="1">
          <mxGeometry width="50" height="50" relative="1" as="geometry">
            <mxPoint x="120" y="370" as="sourcePoint" />
            <mxPoint x="300" y="339" as="targetPoint" />
          </mxGeometry>
        </mxCell>
        <mxCell id="6eW_wML3xE2GXAJtJS3j-19" value="LÃ¦sning af klausulser" style="edgeLabel;html=1;align=center;verticalAlign=middle;resizable=0;points=[];" parent="6eW_wML3xE2GXAJtJS3j-18" vertex="1" connectable="0">
          <mxGeometry x="-0.0462" y="-2" relative="1" as="geometry">
            <mxPoint y="-2" as="offset" />
          </mxGeometry>
        </mxCell>
        <mxCell id="6eW_wML3xE2GXAJtJS3j-20" value="" style="endArrow=classic;html=1;rounded=0;entryX=0.005;entryY=0.121;entryDx=0;entryDy=0;entryPerimeter=0;exitX=0.957;exitY=0.161;exitDx=0;exitDy=0;exitPerimeter=0;" parent="1" source="6eW_wML3xE2GXAJtJS3j-39" target="6eW_wML3xE2GXAJtJS3j-36" edge="1">
          <mxGeometry width="50" height="50" relative="1" as="geometry">
            <mxPoint x="340" y="400" as="sourcePoint" />
            <mxPoint x="510" y="370" as="targetPoint" />
          </mxGeometry>
        </mxCell>
        <mxCell id="6eW_wML3xE2GXAJtJS3j-21" value="GET:&amp;nbsp;/2025/08/01/clauses" style="edgeLabel;html=1;align=center;verticalAlign=middle;resizable=0;points=[];" parent="6eW_wML3xE2GXAJtJS3j-20" vertex="1" connectable="0">
          <mxGeometry x="-0.1652" relative="1" as="geometry">
            <mxPoint x="5" as="offset" />
          </mxGeometry>
        </mxCell>
        <mxCell id="6eW_wML3xE2GXAJtJS3j-22" value="" style="endArrow=classic;html=1;rounded=0;entryX=0;entryY=0.25;entryDx=0;entryDy=0;exitX=1.1;exitY=0.356;exitDx=0;exitDy=0;exitPerimeter=0;" parent="1" source="6eW_wML3xE2GXAJtJS3j-36" target="6eW_wML3xE2GXAJtJS3j-34" edge="1">
          <mxGeometry width="50" height="50" relative="1" as="geometry">
            <mxPoint x="530" y="400" as="sourcePoint" />
            <mxPoint x="740" y="390" as="targetPoint" />
          </mxGeometry>
        </mxCell>
        <mxCell id="6eW_wML3xE2GXAJtJS3j-23" value="Read: Klausuler" style="edgeLabel;html=1;align=center;verticalAlign=middle;resizable=0;points=[];" parent="6eW_wML3xE2GXAJtJS3j-22" vertex="1" connectable="0">
          <mxGeometry x="-0.1778" y="-1" relative="1" as="geometry">
            <mxPoint x="8" as="offset" />
          </mxGeometry>
        </mxCell>
        <mxCell id="6eW_wML3xE2GXAJtJS3j-24" value="" style="endArrow=classic;html=1;rounded=0;dashed=1;exitX=0;exitY=0.75;exitDx=0;exitDy=0;entryX=1.005;entryY=0.588;entryDx=0;entryDy=0;entryPerimeter=0;" parent="1" source="6eW_wML3xE2GXAJtJS3j-34" target="6eW_wML3xE2GXAJtJS3j-36" edge="1">
          <mxGeometry width="50" height="50" relative="1" as="geometry">
            <mxPoint x="750" y="440" as="sourcePoint" />
            <mxPoint x="530" y="433" as="targetPoint" />
          </mxGeometry>
        </mxCell>
        <mxCell id="6eW_wML3xE2GXAJtJS3j-25" value="Klausuler" style="edgeLabel;html=1;align=center;verticalAlign=middle;resizable=0;points=[];" parent="6eW_wML3xE2GXAJtJS3j-24" vertex="1" connectable="0">
          <mxGeometry x="-0.1778" y="-1" relative="1" as="geometry">
            <mxPoint x="-20" as="offset" />
          </mxGeometry>
        </mxCell>
        <mxCell id="6eW_wML3xE2GXAJtJS3j-26" value="" style="endArrow=none;html=1;rounded=0;entryX=0.5;entryY=1;entryDx=0;entryDy=0;" parent="1" source="6eW_wML3xE2GXAJtJS3j-34" target="6eW_wML3xE2GXAJtJS3j-27" edge="1">
          <mxGeometry width="50" height="50" relative="1" as="geometry">
            <mxPoint x="750" y="530" as="sourcePoint" />
            <mxPoint x="750" y="100" as="targetPoint" />
          </mxGeometry>
        </mxCell>
        <mxCell id="6eW_wML3xE2GXAJtJS3j-27" value="" style="rounded=0;whiteSpace=wrap;html=1;" parent="1" vertex="1">
          <mxGeometry x="745" y="180" width="10" height="60" as="geometry" />
        </mxCell>
        <mxCell id="6eW_wML3xE2GXAJtJS3j-28" value="LÃ¦ge" style="shape=umlActor;verticalLabelPosition=bottom;verticalAlign=top;html=1;outlineConnect=0;" parent="1" vertex="1">
          <mxGeometry x="70" y="40" width="20" height="40" as="geometry" />
        </mxCell>
        <mxCell id="6eW_wML3xE2GXAJtJS3j-29" value="" style="endArrow=classic;html=1;rounded=0;dashed=1;entryX=0.862;entryY=0.811;entryDx=0;entryDy=0;entryPerimeter=0;exitX=-0.043;exitY=0.949;exitDx=0;exitDy=0;exitPerimeter=0;" parent="1" source="6eW_wML3xE2GXAJtJS3j-46" target="6eW_wML3xE2GXAJtJS3j-40" edge="1">
          <mxGeometry width="50" height="50" relative="1" as="geometry">
            <mxPoint x="300" y="299.5" as="sourcePoint" />
            <mxPoint x="110" y="300" as="targetPoint" />
          </mxGeometry>
        </mxCell>
        <mxCell id="6eW_wML3xE2GXAJtJS3j-30" value="BekrÃ¦ftelse" style="edgeLabel;html=1;align=center;verticalAlign=middle;resizable=0;points=[];" parent="6eW_wML3xE2GXAJtJS3j-29" vertex="1" connectable="0">
          <mxGeometry x="0.0636" y="-3" relative="1" as="geometry">
            <mxPoint as="offset" />
          </mxGeometry>
        </mxCell>
        <mxCell id="6eW_wML3xE2GXAJtJS3j-31" value="" style="endArrow=classic;html=1;rounded=0;dashed=1;exitX=0.052;exitY=0.874;exitDx=0;exitDy=0;exitPerimeter=0;entryX=1.1;entryY=0.838;entryDx=0;entryDy=0;entryPerimeter=0;" parent="1" source="6eW_wML3xE2GXAJtJS3j-36" target="6eW_wML3xE2GXAJtJS3j-39" edge="1">
          <mxGeometry width="50" height="50" relative="1" as="geometry">
            <mxPoint x="520" y="480" as="sourcePoint" />
            <mxPoint x="300" y="480" as="targetPoint" />
          </mxGeometry>
        </mxCell>
        <mxCell id="6eW_wML3xE2GXAJtJS3j-32" value="200: Klausuler" style="edgeLabel;html=1;align=center;verticalAlign=middle;resizable=0;points=[];" parent="6eW_wML3xE2GXAJtJS3j-31" vertex="1" connectable="0">
          <mxGeometry x="0.1739" y="-1" relative="1" as="geometry">
            <mxPoint x="11" as="offset" />
          </mxGeometry>
        </mxCell>
        <mxCell id="6eW_wML3xE2GXAJtJS3j-33" value="" style="endArrow=none;html=1;rounded=0;entryX=0.5;entryY=1;entryDx=0;entryDy=0;" parent="1" target="6eW_wML3xE2GXAJtJS3j-34" edge="1">
          <mxGeometry width="50" height="50" relative="1" as="geometry">
            <mxPoint x="750" y="530" as="sourcePoint" />
            <mxPoint x="750" y="270" as="targetPoint" />
          </mxGeometry>
        </mxCell>
        <mxCell id="6eW_wML3xE2GXAJtJS3j-34" value="" style="rounded=0;whiteSpace=wrap;html=1;" parent="1" vertex="1">
          <mxGeometry x="745" y="380" width="10" height="70" as="geometry" />
        </mxCell>
        <mxCell id="6eW_wML3xE2GXAJtJS3j-35" value="" style="endArrow=none;html=1;rounded=0;entryX=0.5;entryY=1;entryDx=0;entryDy=0;" parent="1" target="6eW_wML3xE2GXAJtJS3j-36" edge="1">
          <mxGeometry width="50" height="50" relative="1" as="geometry">
            <mxPoint x="530" y="520" as="sourcePoint" />
            <mxPoint x="530" y="100" as="targetPoint" />
          </mxGeometry>
        </mxCell>
        <mxCell id="6eW_wML3xE2GXAJtJS3j-36" value="" style="rounded=0;whiteSpace=wrap;html=1;" parent="1" vertex="1">
          <mxGeometry x="525" y="340" width="10" height="160" as="geometry" />
        </mxCell>
        <mxCell id="6eW_wML3xE2GXAJtJS3j-37" value="" style="rounded=0;whiteSpace=wrap;html=1;" parent="1" vertex="1">
          <mxGeometry x="75" y="330" width="10" height="180" as="geometry" />
        </mxCell>
        <mxCell id="6eW_wML3xE2GXAJtJS3j-38" value="" style="endArrow=none;html=1;rounded=0;entryX=0.5;entryY=1;entryDx=0;entryDy=0;" parent="1" target="6eW_wML3xE2GXAJtJS3j-39" edge="1">
          <mxGeometry width="50" height="50" relative="1" as="geometry">
            <mxPoint x="300" y="530" as="sourcePoint" />
            <mxPoint x="300" y="100" as="targetPoint" />
          </mxGeometry>
        </mxCell>
        <mxCell id="6eW_wML3xE2GXAJtJS3j-39" value="" style="rounded=0;whiteSpace=wrap;html=1;" parent="1" vertex="1">
          <mxGeometry x="295" y="330" width="10" height="180" as="geometry" />
        </mxCell>
        <mxCell id="6eW_wML3xE2GXAJtJS3j-40" value="" style="rounded=0;whiteSpace=wrap;html=1;" parent="1" vertex="1">
          <mxGeometry x="75" y="110" width="10" height="200" as="geometry" />
        </mxCell>
        <mxCell id="6eW_wML3xE2GXAJtJS3j-41" value="" style="endArrow=classic;html=1;rounded=0;dashed=1;exitX=0;exitY=0.75;exitDx=0;exitDy=0;entryX=0.91;entryY=0.6;entryDx=0;entryDy=0;entryPerimeter=0;" parent="1" source="6eW_wML3xE2GXAJtJS3j-27" target="6eW_wML3xE2GXAJtJS3j-44" edge="1">
          <mxGeometry width="50" height="50" relative="1" as="geometry">
            <mxPoint x="735" y="299.5" as="sourcePoint" />
            <mxPoint x="580" y="240" as="targetPoint" />
          </mxGeometry>
        </mxCell>
        <mxCell id="6eW_wML3xE2GXAJtJS3j-42" value="Klausuler" style="edgeLabel;html=1;align=center;verticalAlign=middle;resizable=0;points=[];" parent="6eW_wML3xE2GXAJtJS3j-41" vertex="1" connectable="0">
          <mxGeometry x="-0.1778" y="-1" relative="1" as="geometry">
            <mxPoint x="-20" as="offset" />
          </mxGeometry>
        </mxCell>
        <mxCell id="6eW_wML3xE2GXAJtJS3j-43" value="" style="endArrow=none;html=1;rounded=0;entryX=0.5;entryY=1;entryDx=0;entryDy=0;" parent="1" source="6eW_wML3xE2GXAJtJS3j-36" target="6eW_wML3xE2GXAJtJS3j-44" edge="1">
          <mxGeometry width="50" height="50" relative="1" as="geometry">
            <mxPoint x="530" y="340" as="sourcePoint" />
            <mxPoint x="530" y="100" as="targetPoint" />
          </mxGeometry>
        </mxCell>
        <mxCell id="6eW_wML3xE2GXAJtJS3j-44" value="" style="rounded=0;whiteSpace=wrap;html=1;" parent="1" vertex="1">
          <mxGeometry x="525" y="170" width="10" height="90" as="geometry" />
        </mxCell>
        <mxCell id="6eW_wML3xE2GXAJtJS3j-45" value="" style="endArrow=none;html=1;rounded=0;entryX=0.5;entryY=1;entryDx=0;entryDy=0;" parent="1" source="6eW_wML3xE2GXAJtJS3j-39" target="6eW_wML3xE2GXAJtJS3j-46" edge="1">
          <mxGeometry width="50" height="50" relative="1" as="geometry">
            <mxPoint x="300" y="330" as="sourcePoint" />
            <mxPoint x="300" y="100" as="targetPoint" />
          </mxGeometry>
        </mxCell>
        <mxCell id="6eW_wML3xE2GXAJtJS3j-46" value="" style="rounded=0;whiteSpace=wrap;html=1;" parent="1" vertex="1">
          <mxGeometry x="295" y="140" width="10" height="140" as="geometry" />
        </mxCell>
      </root>
    </mxGraphModel>
  </diagram>
</mxfile>
